<?xml version="1.0" ?><!DOCTYPE svg  PUBLIC '-//W3C//DTD SVG 1.1//EN'  'http://www.w3.org/Graphics/SVG/1.1/DTD/svg11.dtd'><svg height="175.000" viewBox="-13.000 -13.000 185.000 175.000" width="185.000" xmlns="http://www.w3.org/2000/svg"><line fill="none" stroke="none" stroke-linecap="round" stroke-width="2.0" x1="0.0" x2="0.0" y1="0.0" y2="0.0"/><polygon fill="none" fill-rule="evenodd" points="0.0,0.0 0.0,0.0 0.0,0.0" stroke-linejoin="round"/><polyline fill="none" points="0.0,0.0 3.1636708977973296e-16,4.833333333333333 5.166666666666667,4.833333333333333 5.166666666666667,0.0 10.333333333333334,0.0 15.500000000000002,0.0 15.500000000000002,4.833333333333333 10.333333333333334,4.833333333333334 10.333333333333334,9.666666666666666 15.500000000000002,9.666666666666666 15.500000000000002,14.5 10.333333333333334,14.5 5.166666666666667,14.5 5.166666666666666,9.666666666666666 -9.177843670234628e-16,9.666666666666666 -6.014172772437301e-16,14.5 -2.850501874639972e-16,19.333333333333332 5.166666666666667,19.333333333333332 5.166666666666667,24.166666666666668 0.0,24.166666666666668 3.163670897797328e-16,29.0 6.327341795594656e-16,33.833333333333336 5.166666666666668,33.833333333333336 5.166666666666668,29.0 10.333333333333334,29.0 10.333333333333334,33.833333333333336 15.500000000000002,33.833333333333336 15.500000000000002,29.0 15.500000000000002,24.166666666666668 10.333333333333334,24.166666666666668 10.333333333333334,19.333333333333332 15.500000000000002,19.333333333333332 20.666666666666668,19.333333333333332 25.833333333333336,19.333333333333332 25.833333333333336,24.166666666666668 20.666666666666668,24.166666666666668 20.666666666666668,29.0 20.666666666666668,33.833333333333336 25.833333333333336,33.833333333333336 25.833333333333336,29.0 31.000000000000004,29.0 31.000000000000004,33.833333333333336 36.16666666666667,33.833333333333336" stroke="#000" stroke-linecap="round" stroke-linejoin="round"/><polyline fill="none" points="36.16666666666667,33.833333333333336 36.16666666666667,29.0 36.16666666666667,24.166666666666668 31.000000000000004,24.166666666666668 31.000000000000004,19.333333333333332 36.16666666666667,19.333333333333332 36.16666666666667,14.5 36.16666666666667,9.666666666666666 31.000000000000004,9.666666666666666 31.000000000000004,14.5 25.833333333333336,14.5 20.666666666666668,14.5 20.666666666666668,9.666666666666666 25.833333333333336,9.666666666666666 25.833333333333336,4.833333333333333 20.666666666666668,4.833333333333332 20.666666666666668,-8.585724723767877e-16 25.833333333333336,-8.585724723767876e-16 31.000000000000004,-8.585724723767875e-16 31.000000000000004,4.833333333333332 36.16666666666667,4.833333333333332 36.16666666666667,-8.585724723767877e-16 41.333333333333336,-8.585724723767876e-16 46.50000000000001,-8.585724723767875e-16 46.50000000000001,4.833333333333332 41.333333333333336,4.833333333333333 41.333333333333336,9.666666666666666 41.333333333333336,14.5 46.50000000000001,14.5 46.50000000000001,9.666666666666666 51.66666666666667,9.666666666666666 51.66666666666667,14.5 56.833333333333336,14.5 56.833333333333336,9.666666666666666 56.833333333333336,4.833333333333333 51.66666666666667,4.833333333333332 51.66666666666667,-8.585724723767877e-16 56.833333333333336,-8.585724723767876e-16 62.00000000000001,-8.585724723767875e-16 62.00000000000001,4.833333333333332 67.16666666666667,4.833333333333332 67.16666666666667,-8.585724723767877e-16 72.33333333333334,-8.585724723767876e-16" stroke="#000" stroke-linecap="round" stroke-linejoin="round"/><polyline fill="none" points="72.33333333333334,-8.585724723767876e-16 77.50000000000001,-8.585724723767875e-16 77.50000000000001,4.833333333333332 72.33333333333334,4.833333333333333 72.33333333333334,9.666666666666666 77.50000000000001,9.666666666666666 77.50000000000001,14.5 72.33333333333334,14.5 67.16666666666667,14.5 67.16666666666667,9.666666666666666 62.00000000000001,9.666666666666666 62.00000000000001,14.5 62.00000000000001,19.333333333333332 62.00000000000001,24.166666666666668 67.16666666666667,24.166666666666668 67.16666666666667,19.333333333333332 72.33333333333334,19.333333333333332 77.50000000000001,19.333333333333332 77.50000000000001,24.166666666666668 72.33333333333334,24.166666666666668 72.33333333333334,29.0 77.50000000000001,29.0 77.50000000000001,33.833333333333336 72.33333333333334,33.833333333333336 67.16666666666667,33.833333333333336 67.16666666666667,29.0 62.00000000000001,29.0 62.00000000000001,33.833333333333336 56.833333333333336,33.833333333333336 51.66666666666667,33.833333333333336 51.66666666666667,29.0 56.833333333333336,29.0 56.833333333333336,24.166666666666668 56.833333333333336,19.333333333333332 51.66666666666667,19.333333333333332 51.66666666666667,24.166666666666668 46.50000000000001,24.166666666666668 46.50000000000001,19.333333333333332 41.333333333333336,19.333333333333332 41.333333333333336,24.166666666666668 41.333333333333336,29.0 46.50000000000001,29.0 46.50000000000001,33.833333333333336" stroke="#000" stroke-linecap="round" stroke-linejoin="round"/><polyline fill="none" points="46.50000000000001,33.833333333333336 41.333333333333336,33.833333333333336 41.333333333333336,38.666666666666664 46.50000000000001,38.666666666666664 46.50000000000001,43.5 41.333333333333336,43.5 41.333333333333336,48.333333333333336 41.333333333333336,53.166666666666664 46.50000000000001,53.166666666666664 46.50000000000001,48.333333333333336 51.66666666666667,48.333333333333336 51.66666666666667,53.166666666666664 56.833333333333336,53.166666666666664 56.833333333333336,48.333333333333336 56.833333333333336,43.5 51.66666666666667,43.5 51.66666666666667,38.666666666666664 56.833333333333336,38.666666666666664 62.00000000000001,38.666666666666664 62.00000000000001,43.5 67.16666666666667,43.5 67.16666666666667,38.666666666666664 72.33333333333334,38.666666666666664 77.50000000000001,38.666666666666664 77.50000000000001,43.5 72.33333333333334,43.5 72.33333333333334,48.333333333333336 77.50000000000001,48.333333333333336 77.50000000000001,53.166666666666664 72.33333333333334,53.166666666666664 67.16666666666667,53.166666666666664 67.16666666666667,48.333333333333336 62.00000000000001,48.333333333333336 62.00000000000001,53.166666666666664 62.00000000000001,58.0 62.00000000000001,62.833333333333336 67.16666666666667,62.833333333333336 67.16666666666667,58.0 72.33333333333334,58.0 77.50000000000001,58.0 77.50000000000001,62.833333333333336 72.33333333333334,62.833333333333336 72.33333333333334,67.66666666666667" stroke="#000" stroke-linecap="round" stroke-linejoin="round"/><polyline fill="none" points="72.33333333333334,67.66666666666667 77.50000000000001,67.66666666666667 77.50000000000001,72.5 72.33333333333334,72.5 67.16666666666667,72.5 67.16666666666667,67.66666666666667 62.00000000000001,67.66666666666667 62.00000000000001,72.5 56.833333333333336,72.5 51.66666666666667,72.5 51.66666666666667,67.66666666666667 56.833333333333336,67.66666666666667 56.833333333333336,62.833333333333336 56.833333333333336,58.0 51.66666666666667,58.0 51.66666666666667,62.833333333333336 46.50000000000001,62.833333333333336 46.50000000000001,58.0 41.333333333333336,58.0 41.333333333333336,62.833333333333336 41.333333333333336,67.66666666666667 46.50000000000001,67.66666666666667 46.50000000000001,72.5 41.333333333333336,72.5 36.16666666666667,72.5 36.16666666666667,67.66666666666667 31.000000000000004,67.66666666666667 31.000000000000004,72.5 25.833333333333336,72.5 20.666666666666668,72.5 20.666666666666668,67.66666666666667 25.833333333333336,67.66666666666667 25.833333333333336,62.833333333333336 20.666666666666668,62.833333333333336 20.666666666666668,58.0 25.833333333333336,58.0 31.000000000000004,58.0 31.000000000000004,62.833333333333336 36.16666666666667,62.833333333333336 36.16666666666667,58.0 36.16666666666667,53.166666666666664 31.000000000000004,53.166666666666664 31.000000000000004,48.333333333333336" stroke="#000" stroke-linecap="round" stroke-linejoin="round"/><polyline fill="none" points="31.000000000000004,48.333333333333336 36.16666666666667,48.333333333333336 36.16666666666667,43.5 36.16666666666667,38.666666666666664 31.000000000000004,38.666666666666664 31.000000000000004,43.5 25.833333333333336,43.5 25.833333333333336,38.666666666666664 20.666666666666668,38.666666666666664 20.666666666666668,43.5 20.666666666666668,48.333333333333336 25.833333333333336,48.333333333333336 25.833333333333336,53.166666666666664 20.666666666666668,53.166666666666664 15.500000000000002,53.166666666666664 10.333333333333334,53.166666666666664 10.333333333333332,48.333333333333336 15.5,48.333333333333336 15.499999999999998,43.5 15.499999999999996,38.666666666666664 10.333333333333329,38.666666666666664 10.333333333333329,43.5 5.166666666666662,43.5 5.166666666666661,38.666666666666664 -6.42449056916424e-15,38.666666666666664 -6.1081234793845076e-15,43.5 -5.791756389604775e-15,48.333333333333336 5.166666666666662,48.333333333333336 5.166666666666662,53.166666666666664 -5.506706202140777e-15,53.166666666666664 -5.190339112361044e-15,58.0 -4.873972022581312e-15,62.833333333333336 5.1666666666666625,62.833333333333336 5.1666666666666625,58.0 10.33333333333333,58.0 15.499999999999998,58.0 15.499999999999998,62.833333333333336 10.33333333333333,62.833333333333336 10.33333333333333,67.66666666666667 15.499999999999998,67.66666666666667 15.499999999999998,72.5 10.33333333333333,72.5 5.166666666666663,72.5" stroke="#000" stroke-linecap="round" stroke-linejoin="round"/><polyline fill="none" points="5.166666666666663,72.5 5.1666666666666625,67.66666666666667 -4.588921835117314e-15,67.66666666666667 -4.2725547453375815e-15,72.5 -3.956187655557849e-15,77.33333333333333 5.166666666666663,77.33333333333333 5.166666666666663,82.16666666666667 -3.671137468093851e-15,82.16666666666667 -3.3547703783141185e-15,87.0 -3.0384032885343856e-15,91.83333333333333 5.166666666666664,91.83333333333333 5.166666666666664,87.0 10.33333333333333,87.0 10.33333333333333,91.83333333333333 15.499999999999998,91.83333333333333 15.499999999999998,87.0 15.499999999999998,82.16666666666667 10.33333333333333,82.16666666666667 10.33333333333333,77.33333333333333 15.499999999999998,77.33333333333333 20.666666666666664,77.33333333333333 20.666666666666664,82.16666666666667 25.833333333333332,82.16666666666667 25.833333333333332,77.33333333333333 31.0,77.33333333333333 36.16666666666667,77.33333333333333 36.16666666666667,82.16666666666667 31.000000000000004,82.16666666666667 31.000000000000004,87.0 36.16666666666667,87.0 36.16666666666667,91.83333333333333 31.000000000000004,91.83333333333333 25.833333333333336,91.83333333333333 25.833333333333336,87.0 20.666666666666668,87.0 20.666666666666668,91.83333333333333 20.666666666666668,96.66666666666667 20.666666666666668,101.5 25.833333333333336,101.5 25.833333333333336,96.66666666666667 31.000000000000004,96.66666666666667 36.16666666666667,96.66666666666667 36.16666666666667,101.5" stroke="#000" stroke-linecap="round" stroke-linejoin="round"/><polyline fill="none" points="36.16666666666667,101.5 31.000000000000004,101.5 31.000000000000004,106.33333333333333 36.16666666666667,106.33333333333333 36.16666666666667,111.16666666666667 31.000000000000004,111.16666666666667 25.833333333333336,111.16666666666667 25.833333333333336,106.33333333333333 20.666666666666668,106.33333333333333 20.666666666666668,111.16666666666667 15.500000000000002,111.16666666666667 10.333333333333334,111.16666666666667 10.333333333333332,106.33333333333333 15.5,106.33333333333333 15.499999999999998,101.5 15.499999999999996,96.66666666666667 10.333333333333329,96.66666666666667 10.333333333333329,101.5 5.166666666666662,101.5 5.166666666666661,96.66666666666667 -6.42449056916424e-15,96.66666666666667 -6.1081234793845076e-15,101.5 -5.791756389604775e-15,106.33333333333333 5.166666666666662,106.33333333333333 5.166666666666662,111.16666666666667 -5.506706202140777e-15,111.16666666666667 -5.190339112361044e-15,116.0 -4.873972022581312e-15,120.83333333333333 5.1666666666666625,120.83333333333333 5.1666666666666625,116.0 10.33333333333333,116.0 15.499999999999998,116.0 15.499999999999998,120.83333333333333 10.33333333333333,120.83333333333333 10.33333333333333,125.66666666666667 15.499999999999998,125.66666666666667 15.499999999999998,130.5 10.33333333333333,130.5 5.166666666666663,130.5 5.1666666666666625,125.66666666666667 -4.588921835117314e-15,125.66666666666667 -4.2725547453375815e-15,130.5 -3.956187655557849e-15,135.33333333333334" stroke="#000" stroke-linecap="round" stroke-linejoin="round"/><polyline fill="none" points="-3.956187655557849e-15,135.33333333333334 5.166666666666663,135.33333333333334 5.166666666666663,140.16666666666666 -3.671137468093851e-15,140.16666666666666 -3.3547703783141185e-15,145.0 -3.0384032885343856e-15,149.83333333333334 5.166666666666664,149.83333333333334 5.166666666666664,145.0 10.33333333333333,145.0 10.33333333333333,149.83333333333334 15.499999999999998,149.83333333333334 15.499999999999998,145.0 15.499999999999998,140.16666666666666 10.33333333333333,140.16666666666666 10.33333333333333,135.33333333333334 15.499999999999998,135.33333333333334 20.666666666666664,135.33333333333334 25.833333333333332,135.33333333333334 25.833333333333332,140.16666666666666 20.666666666666664,140.16666666666666 20.666666666666664,145.0 20.666666666666664,149.83333333333334 25.833333333333332,149.83333333333334 25.833333333333332,145.0 31.0,145.0 31.0,149.83333333333334 36.16666666666667,149.83333333333334 36.16666666666667,145.0 36.16666666666667,140.16666666666666 31.000000000000004,140.16666666666666 31.000000000000004,135.33333333333334 36.16666666666667,135.33333333333334 36.16666666666667,130.5 36.16666666666667,125.66666666666667 31.000000000000004,125.66666666666667 31.000000000000004,130.5 25.833333333333336,130.5 20.666666666666668,130.5 20.666666666666668,125.66666666666667 25.833333333333336,125.66666666666667 25.833333333333336,120.83333333333333 20.666666666666668,120.83333333333333 20.666666666666668,116.0" stroke="#000" stroke-linecap="round" stroke-linejoin="round"/><polyline fill="none" points="20.666666666666668,116.0 25.833333333333336,116.0 31.000000000000004,116.0 31.000000000000004,120.83333333333333 36.16666666666667,120.83333333333333 36.16666666666667,116.0 41.333333333333336,116.0 41.333333333333336,120.83333333333333 46.50000000000001,120.83333333333333 46.50000000000001,116.0 51.66666666666667,116.0 56.833333333333336,116.0 56.833333333333336,120.83333333333333 51.66666666666667,120.83333333333333 51.66666666666667,125.66666666666667 56.833333333333336,125.66666666666667 56.833333333333336,130.5 51.66666666666667,130.5 46.50000000000001,130.5 46.50000000000001,125.66666666666667 41.333333333333336,125.66666666666667 41.333333333333336,130.5 41.333333333333336,135.33333333333334 46.50000000000001,135.33333333333334 46.50000000000001,140.16666666666666 41.333333333333336,140.16666666666666 41.333333333333336,145.0 41.333333333333336,149.83333333333334 46.50000000000001,149.83333333333334 46.50000000000001,145.0 51.66666666666667,145.0 51.66666666666667,149.83333333333334 56.833333333333336,149.83333333333334 56.833333333333336,145.0 56.833333333333336,140.16666666666666 51.66666666666667,140.16666666666666 51.66666666666667,135.33333333333334 56.833333333333336,135.33333333333334 62.00000000000001,135.33333333333334 67.16666666666667,135.33333333333334 67.16666666666667,140.16666666666666 62.00000000000001,140.16666666666666 62.00000000000001,145.0" stroke="#000" stroke-linecap="round" stroke-linejoin="round"/><polyline fill="none" points="62.00000000000001,145.0 62.00000000000001,149.83333333333334 67.16666666666667,149.83333333333334 67.16666666666667,145.0 72.33333333333334,145.0 72.33333333333334,149.83333333333334 77.50000000000001,149.83333333333334 77.50000000000001,145.0 77.50000000000001,140.16666666666666 72.33333333333334,140.16666666666666 72.33333333333334,135.33333333333334 77.50000000000001,135.33333333333334 77.50000000000001,130.5 77.50000000000001,125.66666666666667 72.33333333333334,125.66666666666667 72.33333333333334,130.5 67.16666666666667,130.5 62.00000000000001,130.5 62.00000000000001,125.66666666666667 67.16666666666667,125.66666666666667 67.16666666666667,120.83333333333333 62.00000000000001,120.83333333333333 62.00000000000001,116.0 67.16666666666667,116.0 72.33333333333334,116.0 72.33333333333334,120.83333333333333 77.50000000000001,120.83333333333333 77.50000000000001,116.0 77.50000000000001,111.16666666666667 72.33333333333334,111.16666666666667 72.33333333333334,106.33333333333333 77.50000000000001,106.33333333333333 77.50000000000001,101.5 77.50000000000001,96.66666666666667 72.33333333333334,96.66666666666667 72.33333333333334,101.5 67.16666666666667,101.5 67.16666666666667,96.66666666666667 62.00000000000001,96.66666666666667 62.00000000000001,101.5 62.00000000000001,106.33333333333333 67.16666666666667,106.33333333333333 67.16666666666667,111.16666666666667" stroke="#000" stroke-linecap="round" stroke-linejoin="round"/><polyline fill="none" points="67.16666666666667,111.16666666666667 62.00000000000001,111.16666666666667 56.833333333333336,111.16666666666667 56.833333333333336,106.33333333333333 51.66666666666667,106.33333333333333 51.66666666666667,111.16666666666667 46.50000000000001,111.16666666666667 41.333333333333336,111.16666666666667 41.333333333333336,106.33333333333333 46.50000000000001,106.33333333333333 46.50000000000001,101.5 41.333333333333336,101.5 41.333333333333336,96.66666666666667 46.50000000000001,96.66666666666667 51.66666666666667,96.66666666666667 51.66666666666667,101.5 56.833333333333336,101.5 56.833333333333336,96.66666666666667 56.833333333333336,91.83333333333333 56.833333333333336,87.0 51.66666666666667,87.0 51.66666666666667,91.83333333333333 46.50000000000001,91.83333333333333 41.333333333333336,91.83333333333333 41.333333333333336,87.0 46.50000000000001,87.0 46.50000000000001,82.16666666666667 41.333333333333336,82.16666666666667 41.333333333333336,77.33333333333333 46.50000000000001,77.33333333333333 51.66666666666667,77.33333333333333 51.66666666666667,82.16666666666667 56.833333333333336,82.16666666666667 56.833333333333336,77.33333333333333 62.00000000000001,77.33333333333333 67.16666666666667,77.33333333333333 67.16666666666667,82.16666666666667 62.00000000000001,82.16666666666667 62.00000000000001,87.0 62.00000000000001,91.83333333333333 67.16666666666667,91.83333333333333 67.16666666666667,87.0 72.33333333333334,87.0" stroke="#000" stroke-linecap="round" stroke-linejoin="round"/><polyline fill="none" points="72.33333333333334,87.0 72.33333333333334,91.83333333333333 77.50000000000001,91.83333333333333 77.50000000000001,87.0 77.50000000000001,82.16666666666667 72.33333333333334,82.16666666666667 72.33333333333334,77.33333333333333 77.50000000000001,77.33333333333333 82.66666666666667,77.33333333333333 87.83333333333334,77.33333333333333 87.83333333333334,82.16666666666667 82.66666666666667,82.16666666666667 82.66666666666667,87.0 82.66666666666667,91.83333333333333 87.83333333333334,91.83333333333333 87.83333333333334,87.0 93.00000000000001,87.0 93.00000000000001,91.83333333333333 98.16666666666667,91.83333333333333 98.16666666666667,87.0 98.16666666666667,82.16666666666667 93.00000000000001,82.16666666666667 93.00000000000001,77.33333333333333 98.16666666666667,77.33333333333333 103.33333333333334,77.33333333333333 103.33333333333334,82.16666666666667 108.50000000000001,82.16666666666667 108.50000000000001,77.33333333333333 113.66666666666667,77.33333333333333 118.83333333333334,77.33333333333333 118.83333333333334,82.16666666666667 113.66666666666667,82.16666666666667 113.66666666666667,87.0 118.83333333333334,87.0 118.83333333333334,91.83333333333333 113.66666666666667,91.83333333333333 108.50000000000001,91.83333333333333 108.50000000000001,87.0 103.33333333333334,87.0 103.33333333333334,91.83333333333333 103.33333333333334,96.66666666666667 103.33333333333334,101.5 108.50000000000001,101.5" stroke="#000" stroke-linecap="round" stroke-linejoin="round"/><polyline fill="none" points="108.50000000000001,101.5 108.50000000000001,96.66666666666667 113.66666666666667,96.66666666666667 118.83333333333334,96.66666666666667 118.83333333333334,101.5 113.66666666666667,101.5 113.66666666666667,106.33333333333333 118.83333333333334,106.33333333333333 118.83333333333334,111.16666666666667 113.66666666666667,111.16666666666667 108.50000000000001,111.16666666666667 108.50000000000001,106.33333333333333 103.33333333333334,106.33333333333333 103.33333333333334,111.16666666666667 98.16666666666667,111.16666666666667 93.00000000000001,111.16666666666667 93.00000000000001,106.33333333333333 98.16666666666667,106.33333333333333 98.16666666666667,101.5 98.16666666666667,96.66666666666667 93.00000000000001,96.66666666666667 93.00000000000001,101.5 87.83333333333334,101.5 87.83333333333334,96.66666666666667 82.66666666666667,96.66666666666667 82.66666666666667,101.5 82.66666666666667,106.33333333333333 87.83333333333334,106.33333333333333 87.83333333333334,111.16666666666667 82.66666666666667,111.16666666666667 82.66666666666667,116.0 82.66666666666667,120.83333333333333 87.83333333333334,120.83333333333333 87.83333333333334,116.0 93.00000000000001,116.0 98.16666666666667,116.0 98.16666666666667,120.83333333333333 93.00000000000001,120.83333333333333 93.00000000000001,125.66666666666667 98.16666666666667,125.66666666666667 98.16666666666667,130.5 93.00000000000001,130.5 87.83333333333334,130.5" stroke="#000" stroke-linecap="round" stroke-linejoin="round"/><polyline fill="none" points="87.83333333333334,130.5 87.83333333333334,125.66666666666667 82.66666666666667,125.66666666666667 82.66666666666667,130.5 82.66666666666667,135.33333333333334 87.83333333333334,135.33333333333334 87.83333333333334,140.16666666666666 82.66666666666667,140.16666666666666 82.66666666666667,145.0 82.66666666666667,149.83333333333334 87.83333333333334,149.83333333333334 87.83333333333334,145.0 93.00000000000001,145.0 93.00000000000001,149.83333333333334 98.16666666666667,149.83333333333334 98.16666666666667,145.0 98.16666666666667,140.16666666666666 93.00000000000001,140.16666666666666 93.00000000000001,135.33333333333334 98.16666666666667,135.33333333333334 103.33333333333334,135.33333333333334 108.50000000000001,135.33333333333334 108.50000000000001,140.16666666666666 103.33333333333334,140.16666666666666 103.33333333333334,145.0 103.33333333333334,149.83333333333334 108.50000000000001,149.83333333333334 108.50000000000001,145.0 113.66666666666667,145.0 113.66666666666667,149.83333333333334 118.83333333333334,149.83333333333334 118.83333333333334,145.0 118.83333333333334,140.16666666666666 113.66666666666667,140.16666666666666 113.66666666666667,135.33333333333334 118.83333333333334,135.33333333333334 118.83333333333334,130.5 118.83333333333334,125.66666666666667 113.66666666666667,125.66666666666667 113.66666666666667,130.5 108.50000000000001,130.5 103.33333333333334,130.5 103.33333333333334,125.66666666666667" stroke="#000" stroke-linecap="round" stroke-linejoin="round"/><polyline fill="none" points="103.33333333333334,125.66666666666667 108.50000000000001,125.66666666666667 108.50000000000001,120.83333333333333 103.33333333333334,120.83333333333333 103.33333333333334,116.0 108.50000000000001,116.0 113.66666666666667,116.0 113.66666666666667,120.83333333333333 118.83333333333334,120.83333333333333 118.83333333333334,116.0 124.00000000000001,116.0 124.00000000000001,120.83333333333333 129.16666666666669,120.83333333333333 129.16666666666669,116.0 134.33333333333334,116.0 139.5,116.0 139.5,120.83333333333333 134.33333333333334,120.83333333333333 134.33333333333334,125.66666666666667 139.5,125.66666666666667 139.5,130.5 134.33333333333334,130.5 129.16666666666669,130.5 129.16666666666669,125.66666666666667 124.00000000000001,125.66666666666667 124.00000000000001,130.5 124.00000000000001,135.33333333333334 129.16666666666669,135.33333333333334 129.16666666666669,140.16666666666666 124.00000000000001,140.16666666666666 124.00000000000001,145.0 124.00000000000001,149.83333333333334 129.16666666666669,149.83333333333334 129.16666666666669,145.0 134.33333333333334,145.0 134.33333333333334,149.83333333333334 139.5,149.83333333333334 139.5,145.0 139.5,140.16666666666666 134.33333333333334,140.16666666666666 134.33333333333334,135.33333333333334 139.5,135.33333333333334 144.66666666666669,135.33333333333334" stroke="#000" stroke-linecap="round" stroke-linejoin="round"/><polyline fill="none" points="144.66666666666669,135.33333333333334 149.83333333333334,135.33333333333334 149.83333333333334,140.16666666666666 144.66666666666669,140.16666666666666 144.66666666666669,145.0 144.66666666666669,149.83333333333334 149.83333333333334,149.83333333333334 149.83333333333334,145.0 155.00000000000003,145.0 155.00000000000003,149.83333333333334 160.16666666666669,149.83333333333334 160.16666666666669,145.0 160.16666666666669,140.16666666666666 155.00000000000003,140.16666666666666 155.00000000000003,135.33333333333334 160.16666666666669,135.33333333333334 160.16666666666669,130.5 160.16666666666669,125.66666666666667 155.00000000000003,125.66666666666667 155.00000000000003,130.5 149.83333333333334,130.5 144.66666666666669,130.5 144.66666666666669,125.66666666666667 149.83333333333334,125.66666666666667 149.83333333333334,120.83333333333333 144.66666666666669,120.83333333333333 144.66666666666669,116.0 149.83333333333334,116.0 155.00000000000003,116.0 155.00000000000003,120.83333333333333 160.16666666666669,120.83333333333333 160.16666666666669,116.0 160.16666666666669,111.16666666666667 155.00000000000003,111.16666666666667 155.00000000000003,106.33333333333333 160.16666666666669,106.33333333333333 160.16666666666669,101.5 160.16666666666669,96.66666666666667 155.00000000000003,96.66666666666667 155.00000000000003,101.5 149.83333333333334,101.5 149.83333333333334,96.66666666666667 144.66666666666669,96.66666666666667" stroke="#000" stroke-linecap="round" stroke-linejoin="round"/><polyline fill="none" points="144.66666666666669,96.66666666666667 144.66666666666669,101.5 144.66666666666669,106.33333333333333 149.83333333333334,106.33333333333333 149.83333333333334,111.16666666666667 144.66666666666669,111.16666666666667 139.5,111.16666666666667 139.5,106.33333333333333 134.33333333333334,106.33333333333333 134.33333333333334,111.16666666666667 129.16666666666669,111.16666666666667 124.00000000000001,111.16666666666667 124.00000000000001,106.33333333333333 129.16666666666669,106.33333333333333 129.16666666666669,101.5 124.00000000000001,101.5 124.00000000000001,96.66666666666667 129.16666666666669,96.66666666666667 134.33333333333334,96.66666666666667 134.33333333333334,101.5 139.5,101.5 139.5,96.66666666666667 139.5,91.83333333333333 139.5,87.0 134.33333333333334,87.0 134.33333333333334,91.83333333333333 129.16666666666669,91.83333333333333 124.00000000000001,91.83333333333333 124.00000000000001,87.0 129.16666666666669,87.0 129.16666666666669,82.16666666666667 124.00000000000001,82.16666666666667 124.00000000000001,77.33333333333333 129.16666666666669,77.33333333333333 134.33333333333334,77.33333333333333 134.33333333333334,82.16666666666667 139.5,82.16666666666667 139.5,77.33333333333333 144.66666666666669,77.33333333333333 149.83333333333334,77.33333333333333 149.83333333333334,82.16666666666667 144.66666666666669,82.16666666666667 144.66666666666669,87.0" stroke="#000" stroke-linecap="round" stroke-linejoin="round"/><polyline fill="none" points="144.66666666666669,87.0 144.66666666666669,91.83333333333333 149.83333333333334,91.83333333333333 149.83333333333334,87.0 155.00000000000003,87.0 155.00000000000003,91.83333333333333 160.16666666666669,91.83333333333333 160.16666666666669,87.0 160.16666666666669,82.16666666666667 155.00000000000003,82.16666666666667 155.00000000000003,77.33333333333333 160.16666666666669,77.33333333333333 160.16666666666669,72.5 160.16666666666669,67.66666666666667 155.00000000000003,67.66666666666667 155.00000000000003,72.5 149.83333333333334,72.5 144.66666666666669,72.5 144.66666666666669,67.66666666666667 149.83333333333334,67.66666666666667 149.83333333333334,62.833333333333336 144.66666666666669,62.833333333333336 144.66666666666669,58.0 149.83333333333334,58.0 155.00000000000003,58.0 155.00000000000003,62.833333333333336 160.16666666666669,62.833333333333336 160.16666666666669,58.0 160.16666666666669,53.166666666666664 155.00000000000003,53.166666666666664 155.00000000000003,48.333333333333336 160.16666666666669,48.333333333333336 160.16666666666669,43.5 160.16666666666669,38.666666666666664 155.00000000000003,38.666666666666664 155.00000000000003,43.5 149.83333333333334,43.5 149.83333333333334,38.666666666666664 144.66666666666669,38.666666666666664 144.66666666666669,43.5 144.66666666666669,48.333333333333336 149.83333333333334,48.333333333333336 149.83333333333334,53.166666666666664" stroke="#000" stroke-linecap="round" stroke-linejoin="round"/><polyline fill="none" points="149.83333333333334,53.166666666666664 144.66666666666669,53.166666666666664 139.5,53.166666666666664 134.33333333333334,53.166666666666664 134.33333333333334,48.333333333333336 139.5,48.333333333333336 139.5,43.5 139.5,38.666666666666664 134.33333333333334,38.666666666666664 134.33333333333334,43.5 129.16666666666669,43.5 129.16666666666669,38.666666666666664 124.00000000000001,38.666666666666664 124.00000000000001,43.5 124.00000000000001,48.333333333333336 129.16666666666669,48.333333333333336 129.16666666666669,53.166666666666664 124.00000000000001,53.166666666666664 124.00000000000001,58.0 124.00000000000001,62.833333333333336 129.16666666666669,62.833333333333336 129.16666666666669,58.0 134.33333333333334,58.0 139.5,58.0 139.5,62.833333333333336 134.33333333333334,62.833333333333336 134.33333333333334,67.66666666666667 139.5,67.66666666666667 139.5,72.5 134.33333333333334,72.5 129.16666666666669,72.5 129.16666666666669,67.66666666666667 124.00000000000001,67.66666666666667 124.00000000000001,72.5 118.83333333333334,72.5 113.66666666666667,72.5 113.66666666666667,67.66666666666667 118.83333333333334,67.66666666666667 118.83333333333334,62.833333333333336 118.83333333333334,58.0 113.66666666666667,58.0 113.66666666666667,62.833333333333336 108.50000000000001,62.833333333333336" stroke="#000" stroke-linecap="round" stroke-linejoin="round"/><polyline fill="none" points="108.50000000000001,62.833333333333336 108.50000000000001,58.0 103.33333333333334,58.0 103.33333333333334,62.833333333333336 103.33333333333334,67.66666666666667 108.50000000000001,67.66666666666667 108.50000000000001,72.5 103.33333333333334,72.5 98.16666666666667,72.5 98.16666666666667,67.66666666666667 93.00000000000001,67.66666666666667 93.00000000000001,72.5 87.83333333333334,72.5 82.66666666666667,72.5 82.66666666666667,67.66666666666667 87.83333333333334,67.66666666666667 87.83333333333334,62.833333333333336 82.66666666666667,62.833333333333336 82.66666666666667,58.0 87.83333333333334,58.0 93.00000000000001,58.0 93.00000000000001,62.833333333333336 98.16666666666667,62.833333333333336 98.16666666666667,58.0 98.16666666666667,53.166666666666664 98.16666666666667,48.333333333333336 93.00000000000001,48.333333333333336 93.00000000000001,53.166666666666664 87.83333333333334,53.166666666666664 82.66666666666667,53.166666666666664 82.66666666666667,48.333333333333336 87.83333333333334,48.333333333333336 87.83333333333334,43.5 82.66666666666667,43.5 82.66666666666667,38.666666666666664 87.83333333333334,38.666666666666664 93.00000000000001,38.666666666666664 93.00000000000001,43.5 98.16666666666667,43.5 98.16666666666667,38.666666666666664 103.33333333333334,38.666666666666664 108.50000000000001,38.666666666666664 108.50000000000001,43.5" stroke="#000" stroke-linecap="round" stroke-linejoin="round"/><polyline fill="none" points="108.50000000000001,43.5 103.33333333333334,43.5 103.33333333333334,48.333333333333336 103.33333333333334,53.166666666666664 108.50000000000001,53.166666666666664 108.50000000000001,48.333333333333336 113.66666666666667,48.333333333333336 113.66666666666667,53.166666666666664 118.83333333333334,53.166666666666664 118.83333333333334,48.333333333333336 118.83333333333334,43.5 113.66666666666667,43.5 113.66666666666667,38.666666666666664 118.83333333333334,38.666666666666664 118.83333333333334,33.833333333333336 113.66666666666667,33.833333333333336 113.66666666666667,29.0 118.83333333333334,29.0 118.83333333333334,24.166666666666668 118.83333333333334,19.333333333333332 113.66666666666667,19.333333333333332 113.66666666666667,24.166666666666668 108.50000000000001,24.166666666666668 108.50000000000001,19.333333333333332 103.33333333333334,19.333333333333332 103.33333333333334,24.166666666666668 103.33333333333334,29.0 108.50000000000001,29.0 108.50000000000001,33.833333333333336 103.33333333333334,33.833333333333336 98.16666666666667,33.833333333333336 98.16666666666667,29.0 93.00000000000001,29.0 93.00000000000001,33.833333333333336 87.83333333333334,33.833333333333336 82.66666666666667,33.833333333333336 82.66666666666667,29.0 87.83333333333334,29.0 87.83333333333334,24.166666666666668 82.66666666666667,24.166666666666668 82.66666666666667,19.333333333333332 87.83333333333334,19.333333333333332 93.00000000000001,19.333333333333332" stroke="#000" stroke-linecap="round" stroke-linejoin="round"/><polyline fill="none" points="93.00000000000001,19.333333333333332 93.00000000000001,24.166666666666668 98.16666666666667,24.166666666666668 98.16666666666667,19.333333333333332 98.16666666666667,14.5 98.16666666666667,9.666666666666666 93.00000000000001,9.666666666666666 93.00000000000001,14.5 87.83333333333334,14.5 82.66666666666667,14.5 82.66666666666667,9.666666666666666 87.83333333333334,9.666666666666666 87.83333333333334,4.833333333333333 82.66666666666667,4.833333333333332 82.66666666666667,-8.585724723767877e-16 87.83333333333334,-8.585724723767876e-16 93.00000000000001,-8.585724723767875e-16 93.00000000000001,4.833333333333332 98.16666666666667,4.833333333333332 98.16666666666667,-8.585724723767877e-16 103.33333333333334,-8.585724723767876e-16 108.50000000000001,-8.585724723767875e-16 108.50000000000001,4.833333333333332 103.33333333333334,4.833333333333333 103.33333333333334,9.666666666666666 103.33333333333334,14.5 108.50000000000001,14.5 108.50000000000001,9.666666666666666 113.66666666666667,9.666666666666666 113.66666666666667,14.5 118.83333333333334,14.5 118.83333333333334,9.666666666666666 118.83333333333334,4.833333333333333 113.66666666666667,4.833333333333332 113.66666666666667,-8.585724723767877e-16 118.83333333333334,-8.585724723767876e-16 124.00000000000001,-8.585724723767875e-16 124.00000000000001,4.833333333333332 129.16666666666669,4.833333333333332 129.16666666666669,-8.585724723767877e-16 134.33333333333334,-8.585724723767876e-16 139.5,-8.585724723767875e-16 139.5,4.833333333333332" stroke="#000" stroke-linecap="round" stroke-linejoin="round"/><polyline fill="none" points="139.5,4.833333333333332 134.33333333333334,4.833333333333333 134.33333333333334,9.666666666666666 139.5,9.666666666666666 139.5,14.5 134.33333333333334,14.5 129.16666666666669,14.5 129.16666666666669,9.666666666666666 124.00000000000001,9.666666666666666 124.00000000000001,14.5 124.00000000000001,19.333333333333332 129.16666666666669,19.333333333333332 129.16666666666669,24.166666666666668 124.00000000000001,24.166666666666668 124.00000000000001,29.0 124.00000000000001,33.833333333333336 129.16666666666669,33.833333333333336 129.16666666666669,29.0 134.33333333333334,29.0 134.33333333333334,33.833333333333336 139.5,33.833333333333336 139.5,29.0 139.5,24.166666666666668 134.33333333333334,24.166666666666668 134.33333333333334,19.333333333333332 139.5,19.333333333333332 144.66666666666669,19.333333333333332 149.83333333333334,19.333333333333332 149.83333333333334,24.166666666666668 144.66666666666669,24.166666666666668 144.66666666666669,29.0 144.66666666666669,33.833333333333336 149.83333333333334,33.833333333333336 149.83333333333334,29.0 155.00000000000003,29.0 155.00000000000003,33.833333333333336 160.16666666666669,33.833333333333336 160.16666666666669,29.0 160.16666666666669,24.166666666666668 155.00000000000003,24.166666666666668 155.00000000000003,19.333333333333332 160.16666666666669,19.333333333333332 160.16666666666669,14.5" stroke="#000" stroke-linecap="round" stroke-linejoin="round"/><polyline fill="none" points="160.16666666666669,14.5 160.16666666666669,9.666666666666666 155.00000000000003,9.666666666666666 155.00000000000003,14.5 149.83333333333334,14.5 144.66666666666669,14.5 144.66666666666669,9.666666666666666 149.83333333333334,9.666666666666666 149.83333333333334,4.833333333333333 144.66666666666669,4.833333333333332 144.66666666666669,-8.585724723767877e-16 149.83333333333334,-8.585724723767876e-16 155.00000000000003,-8.585724723767875e-16 155.00000000000003,4.833333333333332 160.16666666666669,4.833333333333332 160.16666666666669,-8.585724723767877e-16" stroke="#000" stroke-linecap="round" stroke-linejoin="round"/></svg>